<svg xmlns="http://www.w3.org/2000/svg" width="72" height="54" viewBox="0 0 72 54"><defs><clipPath id="84vya"><path fill="#fff" d="M9.333 38.67h53.334c.736 0 1.333.597 1.333 1.333L72 52c0 .737-.597 1.333-1.333 1.333H1.333A1.333 1.333 0 0 1 0 52l8-11.997c0-.736.597-1.333 1.333-1.333z"/></clipPath><clipPath id="84vyb"><path fill="#fff" d="M7.998 1c0-.5.5-1 1-1h54.004c.5 0 1 .5 1 1v40.656c0 .5-.5 1-1 1H8.998c-.5 0-1-.5-1-1z"/></clipPath></defs><g><g><g><g><path fill="none" stroke="#252f5a" stroke-linecap="round" stroke-linejoin="round" stroke-miterlimit="50" stroke-width="6" d="M9.333 38.67v0h53.334c.736 0 1.333.597 1.333 1.333L72 52c0 .737-.597 1.333-1.333 1.333H1.333A1.333 1.333 0 0 1 0 52l8-11.997c0-.736.597-1.333 1.333-1.333z" clip-path="url(&quot;#84vya&quot;)"/></g><g><path fill="none" stroke="#252f5a" stroke-miterlimit="50" stroke-width="6" d="M7.998 1c0-.5.5-1 1-1h54.004c.5 0 1 .5 1 1v40.656c0 .5-.5 1-1 1H8.998c-.5 0-1-.5-1-1z" clip-path="url(&quot;#84vyb&quot;)"/></g></g><g><path fill="#252f5a" d="M24 24.5c0-.75.75-1.5 1.5-1.5s1.5.75 1.5 1.5v5c0 .75-.75 1.5-1.5 1.5s-1.5-.75-1.5-1.5z"/></g><g><path fill="#252f5a" d="M31 20.5c0-.75.75-1.5 1.5-1.5s1.5.75 1.5 1.5v9c0 .75-.75 1.5-1.5 1.5s-1.5-.75-1.5-1.5z"/></g><g><path fill="#252f5a" d="M38 16.5c0-.75.75-1.5 1.5-1.5s1.5.75 1.5 1.5v13c0 .75-.75 1.5-1.5 1.5s-1.5-.75-1.5-1.5z"/></g><g><path fill="#252f5a" d="M45 12.5c0-.75.75-1.5 1.5-1.5s1.5.75 1.5 1.5v17c0 .75-.75 1.5-1.5 1.5s-1.5-.75-1.5-1.5z"/></g></g></g></svg>